# xmcd
# 
# Track frame offsets:
#     150
#     11665
#     24435
#     36537
#     49365
#     61600
#     82920
#     97740
#     114212
#     130150
#     143775
#     154182
#     165175
#     182585
#     205707
#     230732
# 
# Disc length: 3450
# 
# Revision: 4
# Processed by: cddbd v1.5.2PL0 Copyright (c) Steve Scherf et al.
# Submitted via: fre:ac v1.0.31
# 
DISCID=c00d7810
DTITLE=Ken Burns Jazz - Ken Burns Jazz Sarah Vaughan
DYEAR=2000
DGENRE=Jazz
TTITLE0=Interlude
TTITLE1=If You Could See Me Now
TTITLE2=I Love You
TTITLE3=Can't Get Out Of This Mood
TTITLE4=They Can't Take That Away From Me
TTITLE5=You're Not The Kind
TTITLE6=Lover Man
TTITLE7=A Sinner Kissed An Angel
TTITLE8=Poor Butterfly
TTITLE9=Misty
TTITLE10=Great Day
TTITLE11=I Feel Pretty
TTITLE12=My Man
TTITLE13=The Nearness Of You
TTITLE14=Autumn Leaves
TTITLE15=Send In The Clowns
EXTD=
EXTT0=
EXTT1=
EXTT2=
EXTT3=
EXTT4=
EXTT5=
EXTT6=
EXTT7=
EXTT8=
EXTT9=
EXTT10=
EXTT11=
EXTT12=
EXTT13=
EXTT14=
EXTT15=
PLAYORDER=
